name rise38.3101peak57.3503fall81.6963.mot
datacolumns 19
datarows 30
range 5.62665300000000 5.67498000000000
endheader
time	ground_force1_vx	ground_force1_vy	ground_force1_vz	ground_force1_px	ground_force1_py	ground_force1_pz	ground_force2_vx	ground_force2_vy	ground_force2_vz	ground_force2_px	ground_force2_py	ground_force2_pz	ground_torque1_x	ground_torque1_y	ground_torque1_z	ground_torque2_x	ground_torque2_y	ground_torque2_z	
5.62665300000000	9.38746400000000	690.43395199999998	46.42929600000000	0.23591500000000	0.00000000000000	0.11853000000000	0.00000000000000	0.00000000000000	0.00000000000000	0.00000000000000	0.00000000000000	0.00000000000000	0.00000000000000	21.48642100000000	0.00000000000000	0.00000000000000	0.00000000000000	0.00000000000000	
5.62832100000000	8.99450100000000	691.70056799999998	46.47454000000000	0.23513100000000	0.00000000000000	0.11849800000000	0.00000000000000	0.00000000000000	0.00000000000000	0.00000000000000	0.00000000000000	0.00000000000000	0.00000000000000	21.57562200000000	0.00000000000000	0.00000000000000	0.00000000000000	0.00000000000000	
5.62998600000000	8.58668400000000	692.98980700000004	46.51717400000000	0.23431700000000	0.00000000000000	0.11846700000000	0.00000000000000	0.00000000000000	0.00000000000000	0.00000000000000	0.00000000000000	0.00000000000000	0.00000000000000	21.66701700000000	0.00000000000000	0.00000000000000	0.00000000000000	0.00000000000000	
5.63164600000000	8.16365600000000	694.30028700000003	46.55694900000000	0.23347100000000	0.00000000000000	0.11843700000000	0.00000000000000	0.00000000000000	0.00000000000000	0.00000000000000	0.00000000000000	0.00000000000000	0.00000000000000	21.76047600000000	0.00000000000000	0.00000000000000	0.00000000000000	0.00000000000000	
5.63331300000000	7.72511300000000	695.63072399999999	46.59364700000000	0.23259400000000	0.00000000000000	0.11840700000000	0.00000000000000	0.00000000000000	0.00000000000000	0.00000000000000	0.00000000000000	0.00000000000000	0.00000000000000	21.85587800000000	0.00000000000000	0.00000000000000	0.00000000000000	0.00000000000000	
5.63498500000000	7.27079900000000	696.97992599999998	46.62708200000000	0.23168500000000	0.00000000000000	0.11837800000000	0.00000000000000	0.00000000000000	0.00000000000000	0.00000000000000	0.00000000000000	0.00000000000000	0.00000000000000	21.95311100000000	0.00000000000000	0.00000000000000	0.00000000000000	0.00000000000000	
5.63664500000000	6.80051100000000	698.34680000000003	46.65710100000000	0.23074300000000	0.00000000000000	0.11835000000000	0.00000000000000	0.00000000000000	0.00000000000000	0.00000000000000	0.00000000000000	0.00000000000000	0.00000000000000	22.05207500000000	0.00000000000000	0.00000000000000	0.00000000000000	0.00000000000000	
5.63832000000000	6.31409800000000	699.73034500000006	46.68358200000000	0.22976800000000	0.00000000000000	0.11832200000000	0.00000000000000	0.00000000000000	0.00000000000000	0.00000000000000	0.00000000000000	0.00000000000000	0.00000000000000	22.15268000000000	0.00000000000000	0.00000000000000	0.00000000000000	0.00000000000000	
5.63998400000000	5.81146100000000	701.12965499999996	46.70643900000000	0.22876000000000	0.00000000000000	0.11829500000000	0.00000000000000	0.00000000000000	0.00000000000000	0.00000000000000	0.00000000000000	0.00000000000000	0.00000000000000	22.25484800000000	0.00000000000000	0.00000000000000	0.00000000000000	0.00000000000000	
5.64164900000000	5.29255400000000	702.54391799999996	46.72561600000000	0.22772000000000	0.00000000000000	0.11826900000000	0.00000000000000	0.00000000000000	0.00000000000000	0.00000000000000	0.00000000000000	0.00000000000000	0.00000000000000	22.35850600000000	0.00000000000000	0.00000000000000	0.00000000000000	0.00000000000000	
5.64331800000000	4.75738200000000	703.97240899999997	46.74109200000000	0.22664700000000	0.00000000000000	0.11824400000000	0.00000000000000	0.00000000000000	0.00000000000000	0.00000000000000	0.00000000000000	0.00000000000000	0.00000000000000	22.46359700000000	0.00000000000000	0.00000000000000	0.00000000000000	0.00000000000000	
5.64498800000000	4.20600000000000	705.41449399999999	46.75287600000000	0.22554300000000	0.00000000000000	0.11822000000000	0.00000000000000	0.00000000000000	0.00000000000000	0.00000000000000	0.00000000000000	0.00000000000000	0.00000000000000	22.57006800000000	0.00000000000000	0.00000000000000	0.00000000000000	0.00000000000000	
5.64665100000000	3.63851700000000	706.86962400000004	46.76101300000000	0.22440700000000	0.00000000000000	0.11819600000000	0.00000000000000	0.00000000000000	0.00000000000000	0.00000000000000	0.00000000000000	0.00000000000000	0.00000000000000	22.67787600000000	0.00000000000000	0.00000000000000	0.00000000000000	0.00000000000000	
5.64831800000000	3.05509000000000	708.33732999999995	46.76557900000000	0.22324200000000	0.00000000000000	0.11817300000000	0.00000000000000	0.00000000000000	0.00000000000000	0.00000000000000	0.00000000000000	0.00000000000000	0.00000000000000	22.78698900000000	0.00000000000000	0.00000000000000	0.00000000000000	0.00000000000000	
5.64998000000000	2.45592400000000	709.81722300000001	46.76668200000000	0.22204800000000	0.00000000000000	0.11815100000000	0.00000000000000	0.00000000000000	0.00000000000000	0.00000000000000	0.00000000000000	0.00000000000000	0.00000000000000	22.89737900000000	0.00000000000000	0.00000000000000	0.00000000000000	0.00000000000000	
5.65165400000000	1.84127400000000	711.30898800000000	46.76446200000000	0.22082700000000	0.00000000000000	0.11813000000000	0.00000000000000	0.00000000000000	0.00000000000000	0.00000000000000	0.00000000000000	0.00000000000000	0.00000000000000	23.00902700000000	0.00000000000000	0.00000000000000	0.00000000000000	0.00000000000000	
5.65331700000000	1.21143900000000	712.81237899999996	46.75909000000000	0.21957900000000	0.00000000000000	0.11810900000000	0.00000000000000	0.00000000000000	0.00000000000000	0.00000000000000	0.00000000000000	0.00000000000000	0.00000000000000	23.12192000000000	0.00000000000000	0.00000000000000	0.00000000000000	0.00000000000000	
5.65498100000000	0.56676400000000	714.32721700000002	46.75076900000000	0.21830800000000	0.00000000000000	0.11808900000000	0.00000000000000	0.00000000000000	0.00000000000000	0.00000000000000	0.00000000000000	0.00000000000000	0.00000000000000	23.23604800000000	0.00000000000000	0.00000000000000	0.00000000000000	0.00000000000000	
5.65665100000000	-0.09236300000000	715.85338300000001	46.73972900000000	0.21701300000000	0.00000000000000	0.11807000000000	0.00000000000000	0.00000000000000	0.00000000000000	0.00000000000000	0.00000000000000	0.00000000000000	0.00000000000000	23.35141100000000	0.00000000000000	0.00000000000000	0.00000000000000	0.00000000000000	
5.65831900000000	-0.76551400000000	717.39081299999998	46.72623100000000	0.21569800000000	0.00000000000000	0.11805200000000	0.00000000000000	0.00000000000000	0.00000000000000	0.00000000000000	0.00000000000000	0.00000000000000	0.00000000000000	23.46800700000000	0.00000000000000	0.00000000000000	0.00000000000000	0.00000000000000	
5.65998300000000	-1.45222100000000	718.93949099999998	46.71056400000000	0.21436400000000	0.00000000000000	0.11803400000000	0.00000000000000	0.00000000000000	0.00000000000000	0.00000000000000	0.00000000000000	0.00000000000000	0.00000000000000	23.58584100000000	0.00000000000000	0.00000000000000	0.00000000000000	0.00000000000000	
5.66164800000000	-2.15197800000000	720.49944800000003	46.69304500000000	0.21301300000000	0.00000000000000	0.11801700000000	0.00000000000000	0.00000000000000	0.00000000000000	0.00000000000000	0.00000000000000	0.00000000000000	0.00000000000000	23.70492000000000	0.00000000000000	0.00000000000000	0.00000000000000	0.00000000000000	
5.66331400000000	-2.86424600000000	722.07075099999997	46.67401500000000	0.21164700000000	0.00000000000000	0.11800100000000	0.00000000000000	0.00000000000000	0.00000000000000	0.00000000000000	0.00000000000000	0.00000000000000	0.00000000000000	23.82525000000000	0.00000000000000	0.00000000000000	0.00000000000000	0.00000000000000	
5.66498300000000	-3.58845200000000	723.65349900000001	46.65384100000000	0.21027000000000	0.00000000000000	0.11798500000000	0.00000000000000	0.00000000000000	0.00000000000000	0.00000000000000	0.00000000000000	0.00000000000000	0.00000000000000	23.94684100000000	0.00000000000000	0.00000000000000	0.00000000000000	0.00000000000000	
5.66664900000000	-4.32399300000000	725.24781900000005	46.63291300000000	0.20888100000000	0.00000000000000	0.11796900000000	0.00000000000000	0.00000000000000	0.00000000000000	0.00000000000000	0.00000000000000	0.00000000000000	0.00000000000000	24.06970000000000	0.00000000000000	0.00000000000000	0.00000000000000	0.00000000000000	
5.66831500000000	-5.07024000000000	726.85385499999995	46.61164400000000	0.20748500000000	0.00000000000000	0.11795400000000	0.00000000000000	0.00000000000000	0.00000000000000	0.00000000000000	0.00000000000000	0.00000000000000	0.00000000000000	24.19383400000000	0.00000000000000	0.00000000000000	0.00000000000000	0.00000000000000	
5.66998600000000	-5.82653700000000	728.47176500000000	46.59046500000000	0.20608400000000	0.00000000000000	0.11793900000000	0.00000000000000	0.00000000000000	0.00000000000000	0.00000000000000	0.00000000000000	0.00000000000000	0.00000000000000	24.31924900000000	0.00000000000000	0.00000000000000	0.00000000000000	0.00000000000000	
5.67164800000000	-6.59220600000000	730.10171500000001	46.56983000000000	0.20467900000000	0.00000000000000	0.11792500000000	0.00000000000000	0.00000000000000	0.00000000000000	0.00000000000000	0.00000000000000	0.00000000000000	0.00000000000000	24.44594700000000	0.00000000000000	0.00000000000000	0.00000000000000	0.00000000000000	
5.67331700000000	-7.36654800000000	731.74386900000002	46.55020600000000	0.20327300000000	0.00000000000000	0.11791100000000	0.00000000000000	0.00000000000000	0.00000000000000	0.00000000000000	0.00000000000000	0.00000000000000	0.00000000000000	24.57392900000000	0.00000000000000	0.00000000000000	0.00000000000000	0.00000000000000	
5.67498000000000	-8.14884800000000	733.39838599999996	46.53207600000000	0.20186800000000	0.00000000000000	0.11789800000000	0.00000000000000	0.00000000000000	0.00000000000000	0.00000000000000	0.00000000000000	0.00000000000000	0.00000000000000	24.70318900000000	0.00000000000000	0.00000000000000	0.00000000000000	0.00000000000000	
